<svg width="24" height="24" viewBox="0 0 24 24" fill="none" xmlns="http://www.w3.org/2000/svg">
<path d="M11.9992 7.72949L5.57962 13.0218C5.57962 13.0292 5.57774 13.0402 5.57399 13.0552C5.57031 13.0701 5.56836 13.0809 5.56836 13.0885V18.4475C5.56836 18.641 5.6391 18.8087 5.78054 18.9499C5.92195 19.0912 6.0894 19.1623 6.28293 19.1623H10.57V14.875H13.4285V19.1624H17.7155C17.909 19.1624 18.0767 19.0915 18.2179 18.9499C18.3594 18.8089 18.4303 18.6411 18.4303 18.4475V13.0885C18.4303 13.0588 18.4263 13.0364 18.4191 13.0218L11.9992 7.72949Z" fill="#000000"/>
<path d="M20.8758 11.816L18.4309 9.78398V5.22875C18.4309 5.12461 18.3974 5.03897 18.3302 4.97194C18.2636 4.905 18.178 4.87152 18.0736 4.87152H15.93C15.8258 4.87152 15.7401 4.905 15.6731 4.97194C15.6062 5.03897 15.5727 5.12465 15.5727 5.22875V7.40584L12.8486 5.12817C12.6107 4.93464 12.3278 4.83789 12.0003 4.83789C11.6728 4.83789 11.3899 4.93464 11.1518 5.12817L3.12406 11.816C3.04965 11.8754 3.00886 11.9554 3.00127 12.0559C2.99373 12.1563 3.01973 12.244 3.07937 12.3184L3.77157 13.1446C3.8312 13.2116 3.90925 13.2525 4.00604 13.2675C4.09539 13.275 4.18475 13.2489 4.27411 13.1894L12 6.74712L19.726 13.1893C19.7857 13.2413 19.8637 13.2672 19.9605 13.2672H19.994C20.0907 13.2525 20.1686 13.2113 20.2285 13.1445L20.9208 12.3184C20.9803 12.2438 21.0064 12.1563 20.9987 12.0558C20.991 11.9555 20.9501 11.8755 20.8758 11.816Z" fill="#000000"/>
</svg>
