
<svg version="1.0" xmlns="http://www.w3.org/2000/svg"
     width="1000.000000pt" height="1000.000000pt" viewBox="0 0 1000.000000 1000.000000"
     preserveAspectRatio="xMidYMid meet">

    <g transform="translate(0.000000,1000.000000) scale(0.100000,-0.100000)"
       fill="#000000" stroke="none">
        <path d="M5504 9979 c-249 -26 -534 -144 -723 -299 -36 -30 -203 -178 -371
-329 -168 -151 -314 -282 -325 -292 -19 -17 -177 -53 -1790 -405 -264 -58
-503 -111 -530 -119 -85 -24 -155 -115 -155 -200 0 -20 120 -577 266 -1238
287 -1300 274 -1250 353 -1303 56 -37 103 -40 222 -14 339 71 2573 560 4092
894 213 47 401 93 416 101 41 20 100 92 106 129 l6 31 192 0 c167 0 202 3 272
22 106 29 205 71 323 135 53 29 100 55 104 56 5 2 8 -75 8 -172 0 -114 4 -184
12 -201 26 -57 -14 -55 1002 -55 668 0 942 3 960 11 13 6 31 25 41 43 15 28
16 150 13 1438 l-3 1408 -28 27 -27 28 -956 0 -956 0 -29 -33 -29 -32 0 -150
0 -150 -108 0 c-132 0 -48 -27 -1027 335 -412 152 -790 288 -840 300 -155 40
-325 51 -491 34z m258 -209 c54 -5 135 -19 180 -31 46 -11 454 -158 908 -327
l825 -306 141 -4 142 -4 7 -571 c3 -315 5 -698 3 -852 l-3 -280 -140 -80
c-243 -141 -361 -177 -565 -177 -114 0 -209 15 -306 48 -48 16 -1563 598
-1736 667 -110 43 -147 68 -186 126 -61 90 -63 201 -6 299 48 82 169 142 258
128 33 -6 637 -188 1486 -450 143 -45 172 -45 211 -7 23 24 29 38 29 74 0 61
-29 90 -119 117 -56 16 -72 25 -76 43 -3 12 -63 288 -135 614 -71 325 -138
609 -148 630 -11 21 -28 46 -39 55 -30 27 -105 58 -143 58 -19 0 -442 -90
-939 -200 -498 -110 -909 -199 -913 -198 -11 4 392 365 465 416 165 116 373
192 577 212 108 10 115 10 222 0z m4028 -1575 l0 -1275 -805 0 -805 0 0 1275
0 1275 805 0 805 0 0 -1275z"/>
        <path d="M5697 5680 c-67 -17 -146 -60 -198 -108 l-51 -47 -41 38 c-94 87
-193 121 -331 115 -76 -3 -102 -9 -158 -35 -191 -90 -296 -291 -254 -490 8
-39 24 -89 35 -112 l21 -40 -487 -3 -488 -3 -56 -26 c-112 -53 -179 -140 -198
-259 -7 -41 -11 -306 -11 -704 0 -604 -1 -638 -17 -631 -84 33 -235 76 -312
89 -176 30 -416 17 -581 -30 -92 -27 -299 -121 -427 -195 l-123 -70 -32 24
c-18 13 -48 29 -67 36 -24 8 -290 11 -943 11 l-910 0 -34 -34 -34 -34 2 -1432
3 -1432 33 -29 33 -29 922 2 922 3 40 22 c51 27 79 57 104 113 18 39 21 66 21
193 l0 147 73 2 c229 7 245 2 987 -274 1294 -482 1225 -463 1655 -455 234 4
271 7 365 30 289 69 548 194 763 368 45 37 325 286 622 555 297 269 771 697
1052 951 281 254 525 479 541 499 77 93 122 221 122 349 0 255 -184 478 -440
531 -123 26 -278 0 -372 -62 l-38 -24 -2 778 -3 777 -34 63 c-40 74 -84 115
-161 151 l-55 26 -487 3 c-269 2 -488 4 -488 6 0 2 12 30 27 62 21 46 27 77
30 153 6 115 -13 187 -72 275 -46 70 -101 116 -189 157 -56 26 -82 32 -154 35
-48 2 -104 -1 -125 -6z m-515 -216 c55 -18 114 -72 139 -128 15 -34 19 -67 19
-193 l0 -153 -120 0 c-65 0 -142 5 -170 11 -69 15 -129 62 -162 128 -100 196
85 407 294 335z m679 1 c89 -32 158 -127 159 -219 0 -77 -19 -126 -71 -178
-64 -64 -119 -80 -275 -76 l-119 3 -3 110 c-4 156 3 206 41 262 67 98 165 134
268 98z m-1021 -1450 l0 -775 29 -32 c25 -28 36 -33 73 -32 37 0 73 18 275
141 l231 142 224 -136 c122 -75 238 -141 256 -146 26 -8 40 -7 68 6 66 32 64
3 64 847 l0 760 508 0 c319 0 521 -4 544 -10 24 -7 48 -24 65 -47 l28 -36 0
-256 c0 -141 -1 -509 -2 -819 l-3 -563 -686 -455 c-377 -251 -688 -453 -691
-451 -2 3 -11 32 -19 66 -28 121 -103 236 -205 313 -68 51 -49 43 -629 265
-267 103 -663 255 -880 338 l-395 152 -3 679 c-1 374 0 693 3 711 8 43 49 91
88 102 18 5 263 10 545 10 l512 1 0 -775z m1005 675 l0 -95 -397 -3 -398 -2 0
100 0 100 398 -2 397 -3 0 -95z m-2790 -1420 c50 -6 122 -19 162 -30 109 -30
2109 -798 2213 -850 66 -33 133 -103 163 -168 16 -35 21 -68 22 -127 0 -71 -4
-88 -33 -147 -59 -121 -170 -190 -302 -190 -57 0 -183 36 -988 281 -507 154
-937 281 -955 281 -83 0 -132 -102 -78 -163 9 -11 23 -23 33 -28 9 -5 270 -87
580 -183 310 -96 725 -225 923 -286 392 -121 457 -134 577 -111 140 27 295
134 363 250 28 48 55 68 395 293 201 133 608 404 905 601 297 198 558 368 580
377 159 71 357 -6 433 -169 32 -70 40 -160 18 -233 -18 -63 -72 -148 -105
-164 -12 -6 -479 -425 -1038 -930 -1125 -1018 -1131 -1023 -1258 -1107 -357
-235 -830 -327 -1236 -242 -147 31 -203 51 -953 329 -1033 385 -1036 386
-1262 386 l-134 0 0 1013 0 1012 198 107 c213 116 314 158 438 182 138 27 209
30 339 16z m-1757 -1522 l2 -1288 -545 0 -545 0 0 1290 0 1290 543 -2 542 -3
3 -1287z m572 463 l0 -819 -180 0 -180 0 0 819 0 819 180 0 180 0 0 -819z
m-12 -1029 c9 -7 12 -86 10 -363 l-3 -354 -177 -3 -178 -2 0 365 0 365 168 0
c92 0 173 -4 180 -8z"/>
    </g>
</svg>
