<?xml version="1.0" standalone="no"?>
<!DOCTYPE svg PUBLIC "-//W3C//DTD SVG 20010904//EN"
    "http://www.w3.org/TR/2001/REC-SVG-20010904/DTD/svg10.dtd">
<svg version="1.0" xmlns="http://www.w3.org/2000/svg"
     width="500.000000pt" height="500.000000pt" viewBox="0 0 500.000000 500.000000"
     preserveAspectRatio="xMidYMid meet">

    <g transform="translate(0.000000,500.000000) scale(0.100000,-0.100000)"
       fill="#000000" stroke="none">
        <path d="M406 4270 c-114 -41 -196 -116 -250 -229 l-31 -66 -6 -545 c-10 -875
-10 -1590 2 -1639 36 -157 168 -286 327 -320 36 -7 256 -11 691 -11 351 0 901
-3 1223 -7 l584 -6 29 -85 c47 -137 115 -242 235 -362 153 -152 295 -230 500
-272 134 -28 327 -21 455 16 351 102 609 369 697 723 31 124 31 332 1 453 -46
182 -137 345 -265 472 l-71 72 2 720 c2 632 0 728 -14 781 -41 155 -167 273
-325 303 -37 7 -667 13 -1890 17 l-1835 6 -59 -21z m3312 -65 c433 -5 466 -7
517 -26 76 -28 147 -96 187 -177 l33 -67 0 -240 c0 -132 -1 -451 -2 -708 l-3
-468 -64 36 c-263 147 -596 165 -874 46 -39 -16 -96 -46 -127 -65 -55 -36 -56
-36 -168 -36 -116 0 -137 -6 -137 -42 0 -25 31 -38 95 -38 l57 0 -59 -64
c-103 -110 -187 -265 -228 -422 -16 -64 -37 -248 -30 -280 2 -10 6 -43 9 -72
l5 -53 -1232 3 -1232 3 -57 23 c-111 45 -197 149 -215 262 -6 32 -7 481 -4
1095 l6 1040 23 49 c47 103 129 175 231 202 36 10 342 12 1426 8 759 -2 1588
-6 1843 -9z m407 -1625 c88 -22 219 -81 293 -131 68 -47 178 -155 227 -224
190 -267 222 -618 84 -913 -119 -255 -345 -439 -625 -509 -103 -25 -324 -23
-426 5 -308 84 -541 303 -644 604 -95 280 -35 612 154 850 149 188 350 301
607 342 63 10 252 -4 330 -24z"/>
        <path d="M500 4013 c-35 -13 -72 -47 -90 -83 -19 -37 -20 -60 -20 -357 0 -304
1 -319 21 -352 52 -86 86 -93 456 -89 319 3 328 5 375 70 22 32 23 41 31 341
5 210 4 321 -3 348 -14 53 -63 106 -108 119 -38 10 -635 13 -662 3z m298 -193
c2 -69 0 -144 -3 -167 l-6 -43 -133 0 c-74 0 -148 3 -165 6 l-32 7 3 134 3
135 33 29 33 30 132 -3 132 -3 3 -125z m334 120 c62 -17 68 -36 68 -192 l0
-138 -165 0 -165 0 0 170 0 170 113 0 c61 0 129 -5 149 -10z m-502 -565 l0
-165 -56 0 c-48 0 -59 4 -85 29 l-29 29 0 136 0 136 85 0 85 0 0 -165z m570
31 c0 -130 -1 -135 -26 -165 l-26 -31 -224 0 -224 0 0 165 0 165 250 0 250 0
0 -134z"/>
        <path d="M2743 3998 c-46 -22 -55 -65 -51 -243 l3 -165 28 -27 27 -28 718 -3
c556 -2 722 0 740 10 45 23 52 55 52 225 0 177 -6 198 -60 225 -32 17 -88 18
-735 17 -472 0 -707 -4 -722 -11z m1440 -81 c10 -15 -1 -299 -13 -310 -4 -5
-319 -7 -699 -5 -601 3 -693 5 -702 18 -12 18 -8 289 5 309 8 12 112 13 705 7
522 -5 698 -10 704 -19z"/>
        <path d="M396 2494 c-21 -21 -20 -30 6 -48 32 -23 240 -23 262 0 20 19 20 29
0 48 -23 23 -245 23 -268 0z"/>
        <path d="M1115 2497 c-19 -10 -19 -41 -1 -56 9 -8 91 -11 276 -9 237 3 264 5
274 20 8 13 7 21 -4 32 -12 11 -67 15 -273 18 -141 2 -264 0 -272 -5z"/>
        <path d="M2099 2484 c-9 -11 -10 -20 -2 -32 9 -15 39 -17 278 -17 239 0 269 2
278 17 8 12 7 21 -2 32 -12 14 -49 16 -276 16 -227 0 -264 -2 -276 -16z"/>
        <path d="M396 2145 c-18 -19 -19 -24 -6 -45 8 -13 118 -15 887 -15 l878 0 3
27 c3 22 -1 28 -20 32 -13 3 -406 8 -874 11 -778 6 -853 5 -868 -10z"/>
        <path d="M398 1800 c-24 -15 -23 -47 1 -60 13 -6 196 -10 525 -10 483 0 506 1
515 19 7 13 7 23 -2 34 -11 14 -74 16 -517 22 -360 4 -510 3 -522 -5z"/>
        <path d="M4215 2131 c-25 -12 -119 -98 -250 -230 -115 -116 -215 -211 -220
-211 -6 0 -35 25 -65 56 -30 30 -66 61 -80 69 -94 49 -207 9 -251 -90 -44 -96
-14 -158 160 -329 71 -69 145 -133 165 -141 49 -20 102 -19 150 5 57 27 610
582 631 632 20 50 19 111 -4 156 -24 47 -50 70 -98 88 -52 18 -91 17 -138 -5z
m152 -93 c22 -23 28 -39 28 -74 l0 -44 -295 -295 c-202 -203 -304 -298 -325
-304 -56 -15 -85 4 -227 147 l-138 138 0 48 c0 39 5 53 29 77 24 24 38 29 76
29 46 0 50 -3 129 -80 46 -44 91 -80 102 -80 12 0 107 88 249 230 154 155 240
233 259 238 46 12 82 3 113 -30z"/>
    </g>
</svg>
